<?xml version="1.0" encoding="UTF-8" standalone="no"?>
<svg xmlns="http://www.w3.org/2000/svg" version="1.0" width="447.28" height="74.61">
    <rect style="fill: #806682;" width="223.823" height="75" x="0" y="0" />
    <rect style="fill: #ffffff;" width="223.457" height="75" x="223.823" y="0" />
    <path d="m 141.71153,37.813208 -24.96289,24.51717 14.46875,0 19.125,-19.15625 5.625,0 0,19.15625 11.40625,0 0,-19.15625 24.1875,0 -19.46875,19.15625 14.4375,0 24.875,-24.875 -24.875,-24.84375 -14.4375,0 19.46875,19.15625 -24.1875,0 0,-19.15625 -11.40625,0 0,19.15625 -5.59375,0 -19.15625,-19.15625 -14.46875,0 z" style="fill: #ffffff;" />
    <path d="m 246.92244,47.31943 c -0.14474,12.87543 10.67798,18.57957 22.23099,18.57957 14.19126,0 21.7244,-7.16471 21.7244,-16.75056 0,-11.84249 -11.70433,-14.257044 -15.50709,-15.204443 -13.09254,-3.368532 -15.57288,-3.881707 -15.57288,-7.901576 0,-4.388302 4.23698,-5.921246 7.895,-5.921246 5.48702,0 9.94769,1.605315 10.30954,7.894995 l 11.11879,0 c 0,-12.066185 -10.02007,-16.816341 -20.91516,-16.816341 -9.43452,0 -19.52696,5.118589 -19.52696,15.796571 0,9.79637 7.82263,12.79647 15.57946,14.84259 7.67789,2.04612 15.50051,3.0001 15.50051,8.62528 0,5.34229 -6.14494,6.51338 -10.16481,6.51338 -6.14493,0 -11.55301,-2.71062 -11.55301,-9.65822" style="fill: #231f20;" />
    <path d="m 296.93751,47.383224 c -0.14474,12.875422 10.67799,18.579557 22.231,18.579557 14.19125,0 21.72439,-7.164709 21.72439,-16.75055 0,-11.842494 -11.70433,-14.257047 -15.50708,-15.204446 -13.09254,-3.368532 -15.57288,-3.881707 -15.57288,-7.901576 0,-4.388302 4.23698,-5.921247 7.89499,-5.921247 5.48702,0 9.9477,1.605316 10.30955,7.894996 l 11.11879,0 c 0,-12.066185 -10.02007,-16.816341 -20.91516,-16.816341 -9.43452,0 -19.52696,5.118589 -19.52696,15.796571 0,9.796374 7.82262,12.796473 15.57946,14.842592 7.67788,2.04612 15.50051,3.000099 15.50051,8.625284 0,5.34228 -6.14494,6.513371 -10.16481,6.513371 -6.14494,0 -11.55301,-2.710615 -11.55301,-9.658211" style="fill: #231f20;" />
    <path d="m 360.83422,21.365109 10.75035,0 c 4.09224,0 7.895,1.01977 7.895,5.993617 0,4.388302 -3.0001,6.217314 -7.01997,6.217314 l -11.62538,0 0,-12.210931 z M 349.347,64.656 l 25.30346,0 c 9.43452,0 18.42824,-4.53304 18.42824,-15.13865 0,-6.50679 -3.21721,-11.40827 -9.57926,-13.23728 4.53304,-2.19086 7.09234,-5.776504 7.09234,-10.895093 0,-9.724003 -6.72391,-12.941214 -16.6716,-12.941214 l -24.57318,0 0,52.212237 z m 11.48722,-23.25734 12.50041,0 c 4.90148,0 8.26343,2.12507 8.26343,7.46077 0,5.40807 -3.9475,6.87523 -8.48054,6.87523 l -12.2833,0" style="fill: #231f20;" />
</svg>
