<?xml version="1.0" encoding="UTF-8" standalone="no"?>
<!-- Created with Inkscape (http://www.inkscape.org/) -->

<svg
   xmlns:dc="http://purl.org/dc/elements/1.1/"
   xmlns:cc="http://creativecommons.org/ns#"
   xmlns:rdf="http://www.w3.org/1999/02/22-rdf-syntax-ns#"
   xmlns:svg="http://www.w3.org/2000/svg"
   xmlns="http://www.w3.org/2000/svg"
   xmlns:sodipodi="http://sodipodi.sourceforge.net/DTD/sodipodi-0.dtd"
   xmlns:inkscape="http://www.inkscape.org/namespaces/inkscape"
   version="1.0"
   width="447.28125"
   height="74.607712"
   id="svg3227"
   inkscape:version="0.48.4 r9939"
   sodipodi:docname="Sbb-logo.svg">
  <metadata
     id="metadata3081">
    <rdf:RDF>
      <cc:Work
         rdf:about="">
        <dc:format>image/svg+xml</dc:format>
        <dc:type
           rdf:resource="http://purl.org/dc/dcmitype/StillImage" />
        <dc:title></dc:title>
      </cc:Work>
    </rdf:RDF>
  </metadata>
  <sodipodi:namedview
     pagecolor="#ffffff"
     bordercolor="#666666"
     borderopacity="1"
     objecttolerance="10"
     gridtolerance="10"
     guidetolerance="10"
     inkscape:pageopacity="0"
     inkscape:pageshadow="2"
     inkscape:window-width="1502"
     inkscape:window-height="729"
     id="namedview3079"
     showgrid="false"
     showguides="true"
     inkscape:guide-bbox="true"
     fit-margin-top="0"
     fit-margin-left="0"
     fit-margin-right="0"
     fit-margin-bottom="0"
     inkscape:zoom="0.9567333"
     inkscape:cx="37.04014"
     inkscape:cy="-98.000602"
     inkscape:window-x="56"
     inkscape:window-y="24"
     inkscape:window-maximized="0"
     inkscape:current-layer="svg3227" />
  <defs
     id="defs3229">
    <clipPath
       id="clp7">
      <path
         d="m 22.677,17.008 107.713,0 0,11.34 -107.713,0 0,-11.34 z"
         id="path2875"
         inkscape:connector-curvature="0" />
    </clipPath>
    <clipPath
       id="clp6">
      <path
         d="m 22.677,0 549.923,0 0,45.355 -549.923,0 0,-45.355 z"
         id="path2869"
         inkscape:connector-curvature="0" />
    </clipPath>
  </defs>
  <g
     transform="translate(-252.68214,-130.55596)"
     id="layer1">
    <g
       transform="matrix(6.5791633,0,0,-6.5791633,103.48645,317.06208)"
       style="font-size:12px;letter-spacing:0.51599997;word-spacing:0;fill:#ffffff;fill-rule:nonzero;stroke:none;font-family:fnt0"
       id="q10">
      <clipPath
         id="clipPath3240">
        <path
           d="m 22.677,0 549.923,0 0,45.355 -549.923,0 0,-45.355 z"
           id="path3242"
           inkscape:connector-curvature="0" />
      </clipPath>
      <g
         clip-path="url(#clp6)"
         id="g2871">
        <g
           style="fill:none;stroke:none"
           id="q11">
          <clipPath
             id="clipPath3246">
            <path
               d="m 22.677,17.008 107.713,0 0,11.34 -107.713,0 0,-11.34 z"
               id="path3248"
               inkscape:connector-curvature="0" />
          </clipPath>
          <g
             clip-path="url(#clp7)"
             id="g2877">
            <path
               d="m 22.677,17.008 34.02,0 0,11.34 -34.02,0 0,-11.34 z"
               style="fill:#806682;fill-opacity:1;fill-rule:nonzero;stroke:none"
               id="path2879"
               inkscape:connector-curvature="0" />
            <path
               d="m 60.208,21.156 c -0.022,-1.957 1.623,-2.824 3.379,-2.824 2.157,0 3.302,1.089 3.302,2.546 0,1.8 -1.779,2.167 -2.357,2.311 -1.99,0.512 -2.367,0.59 -2.367,1.201 0,0.667 0.644,0.9 1.2,0.9 0.834,0 1.512,-0.244 1.567,-1.2 l 1.69,0 c 0,1.834 -1.523,2.556 -3.179,2.556 -1.434,0 -2.968,-0.778 -2.968,-2.401 0,-1.489 1.189,-1.945 2.368,-2.256 1.167,-0.311 2.356,-0.456 2.356,-1.311 0,-0.812 -0.934,-0.99 -1.545,-0.99 -0.934,0 -1.756,0.412 -1.756,1.468"
               style="fill:#231f20;fill-rule:nonzero;stroke:none"
               id="path2883"
               inkscape:connector-curvature="0" />
            <path
               d="m 77.522,25.101 1.634,0 c 0.622,0 1.2,-0.155 1.2,-0.911 0,-0.667 -0.456,-0.945 -1.067,-0.945 l -1.767,0 0,1.856 z m -1.746,-6.58 3.846,0 c 1.434,0 2.801,0.689 2.801,2.301 0,0.989 -0.489,1.734 -1.456,2.012 0.689,0.333 1.078,0.878 1.078,1.656 0,1.478 -1.022,1.967 -2.534,1.967 l -3.735,0 0,-7.936 z m 1.746,3.535 1.9,0 c 0.745,0 1.256,-0.323 1.256,-1.134 0,-0.822 -0.6,-1.045 -1.289,-1.045 l -1.867,0"
               style="fill:#231f20;fill-rule:evenodd;stroke:none"
               id="path2887"
               inkscape:connector-curvature="0" />
          </g>
        </g>
      </g>
    </g>
  </g>
  <path
     inkscape:connector-curvature="0"
     d="m 296.93751,47.380936 c -0.14474,12.875422 10.67799,18.579557 22.231,18.579557 14.19125,0 21.72439,-7.164709 21.72439,-16.75055 0,-11.842494 -11.70433,-14.257047 -15.50708,-15.204446 -13.09254,-3.368532 -15.57288,-3.881707 -15.57288,-7.901576 0,-4.388302 4.23698,-5.921247 7.89499,-5.921247 5.48702,0 9.9477,1.605316 10.30955,7.894996 l 11.11879,0 c 0,-12.066185 -10.02007,-16.816341 -20.91516,-16.816341 -9.43452,0 -19.52696,5.118589 -19.52696,15.796571 0,9.796374 7.82262,12.796473 15.57946,14.842592 7.67788,2.04612 15.50051,3.000099 15.50051,8.625284 0,5.34228 -6.14494,6.513371 -10.16481,6.513371 -6.14494,0 -11.55301,-2.710615 -11.55301,-9.658211"
     style="font-size:12px;letter-spacing:0.51599997;word-spacing:0;fill:#231f20;fill-rule:nonzero;stroke:none;font-family:fnt0"
     id="path2883-8" />
  <path
     style="font-size:12px;letter-spacing:0.51599997;word-spacing:0;fill:#ffffff;fill-opacity:1;fill-rule:nonzero;stroke:none;font-family:fnt0"
     d="m 141.71153,37.81092 -24.96289,24.51717 14.46875,0 19.125,-19.15625 5.625,0 0,19.15625 11.40625,0 0,-19.15625 24.1875,0 -19.46875,19.15625 14.4375,0 24.875,-24.875 -24.875,-24.84375 -14.4375,0 19.46875,19.15625 -24.1875,0 0,-19.15625 -11.40625,0 0,19.15625 -5.59375,0 -19.15625,-19.15625 -14.46875,0 z"
     id="path2881-9-0-7"
     inkscape:connector-curvature="0"
     sodipodi:nodetypes="ccccccccccccccccccccccc" />
</svg>
